PathFileType	4	(X/Y/Z)	C:\Users\Basilio\Documents\Thesis Gigler\squatting_fais\c3dfiles\073\SLS_front_pre5\markers_experimental.trc
DataRate	CameraRate	NumFrames	NumMarkers	Units	OrigDataRate	OrigDataStartFrame	OrigNumFrames
200.000000	200.000000	4	61	mm	200.000000	159	1279
Frame#	Time	FHD			LBHD			RBHD			C7			T10			CLAV			LSHO			LUUPA			LMUPA			LDUPA			LLEP			LMEP			LRAD			LUL			LRFIN			RSHO			RUPA1			RMUPA			RDUPA			RLEP			RMEP			RUL			RUFIN			LASI			RASI			USACR			LSACR			RSACR			LTHI1			LTHI2			LTHI3			LTHI4			LLFC			LMFC			LTIB1			LTIB2			LTIB3			LTIB4			LLMAL			LMMAL			LHEE			LMT1			LMT2			LMT5			RTHI			RTHI2			RTHI3			RTHI4			RLFC			RMFC			RTIB1			RTIB2			RTIB3			RTIB4			RLMAL			RMMAL			RHEE			RMT1			RMT2			RMT5			RRAD			
		X1	Y1	Z1	X2	Y2	Z2	X3	Y3	Z3	X4	Y4	Z4	X5	Y5	Z5	X6	Y6	Z6	X7	Y7	Z7	X8	Y8	Z8	X9	Y9	Z9	X10	Y10	Z10	X11	Y11	Z11	X12	Y12	Z12	X13	Y13	Z13	X14	Y14	Z14	X15	Y15	Z15	X16	Y16	Z16	X17	Y17	Z17	X18	Y18	Z18	X19	Y19	Z19	X20	Y20	Z20	X21	Y21	Z21	X22	Y22	Z22	X23	Y23	Z23	X24	Y24	Z24	X25	Y25	Z25	X26	Y26	Z26	X27	Y27	Z27	X28	Y28	Z28	X29	Y29	Z29	X30	Y30	Z30	X31	Y31	Z31	X32	Y32	Z32	X33	Y33	Z33	X34	Y34	Z34	X35	Y35	Z35	X36	Y36	Z36	X37	Y37	Z37	X38	Y38	Z38	X39	Y39	Z39	X40	Y40	Z40	X41	Y41	Z41	X42	Y42	Z42	X43	Y43	Z43	X44	Y44	Z44	X45	Y45	Z45	X46	Y46	Z46	X47	Y47	Z47	X48	Y48	Z48	X49	Y49	Z49	X50	Y50	Z50	X51	Y51	Z51	X52	Y52	Z52	X53	Y53	Z53	X54	Y54	Z54	X55	Y55	Z55	X56	Y56	Z56	X57	Y57	Z57	X58	Y58	Z58	X59	Y59	Z59	X60	Y60	Z60	X61	Y61	Z61	

160	0.795	-238.5253295898438	1683.21826171875	-758.9252929687501	-374.4970092773438	1659.71240234375	-784.601013183594	-399.2104797363282	1640.75146484375	-651.4152221679689	-436.2855834960939	1539.18310546875	-716.0347900390626	-497.6121520996095	1205.198364257813	-732.4731445312501	-314.6339721679688	1453.51123046875	-719.7453613281251	-342.9924926757813	1497.735595703125	-868.1396484375002	-265.5899047851563	1411.333251953125	-959.7393188476565	-222.554428100586	1428.752563476563	-939.163024902344	-205.3674774169922	1378.33203125	-969.4736328125002	-104.3734512329102	1344.740844726563	-974.1148681640627	-111.5913009643555	1291.34814453125	-927.5474853515627	157.682357788086	1351.831176757813	-866.5983886718752	159.8081207275391	1347.621948242188	-941.0266723632815	240.3341217041016	1355.316162109375	-861.219177246094	-327.5723266601563	1480.75390625	-569.3731079101564	-242.4235839843751	1362.501586914063	-480.2758178710939	-201.1296539306641	1380.857543945313	-496.342742919922	-182.871566772461	1327.367309570313	-476.6638183593751	-94.18850708007814	1299.949340820313	-479.5357055664064	-106.4405822753907	1248.20361328125	-543.3599853515626	167.0225219726563	1313.6484375	-534.8583374023439	243.6322326660157	1323.339111328125	-618.3746337890626	-334.5108642578126	1064.850952148438	-881.0750122070315	-320.6038818359376	1031.445678710938	-631.5774536132814	-514.0361938476564	1089.54736328125	-742.1528930664064	-524.1776123046876	1062.792846679688	-773.4483642578127	-524.0456542968751	1054.27587890625	-718.1052246093751	-226.9904022216797	793.5193481445315	-945.344421386719	-157.5227203369141	750.1090698242189	-924.5395507812502	-129.7803955078125	774.3188476562502	-890.4924316406252	-151.5067749023438	691.2738037109376	-918.4121704101565	-119.9460144042969	640.3225097656251	-919.4822387695315	-124.6932830810547	628.8910522460939	-780.3306884765627	29.81077575683594	501.8197631835939	-869.5169677734377	4.907304286956788	436.9256286621095	-923.663269042969	42.52661514282227	453.6588439941407	-902.1511230468752	87.17794799804689	388.862274169922	-869.6561279296877	101.8859252929688	256.3151550292969	-896.4231567382815	96.82430267333987	280.4664001464844	-812.1204833984377	66.45982360839845	199.134506225586	-855.0782470703127	261.3204956054688	302.4560546875001	-807.0194091796877	264.4043579101563	304.4762878417969	-846.9315185546877	246.6223144531251	267.4381103515626	-901.0625000000002	-389.6338500976564	789.7666625976565	-583.5496215820314	-347.3399963378907	738.6580810546876	-582.8836669921876	-314.2972106933594	744.7134399414064	-582.7999267578126	-361.9718322753907	660.6729736328126	-610.2507934570314	-328.3462524414063	516.0707397460939	-631.1566772460939	-308.0346069335938	515.4124145507814	-759.7748413085939	-283.1420593261719	358.7609252929688	-727.3574829101564	-318.0873718261719	273.8548583984376	-670.3134155273439	-289.4139099121094	273.6150512695313	-709.7988281250001	-307.4144897460938	233.2109069824219	-747.1032714843751	-364.8239440917969	96.4726257324219	-710.8523559570314	-353.8351745605469	133.1483001708985	-793.6246337890627	-433.0931396484376	83.10427856445314	-771.8300781250002	-208.6633453369141	60.2823829650879	-785.3423461914065	-208.7781829833985	52.39353561401369	-745.3070678710939	-252.1218261718751	31.65592193603516	-698.5474853515626	nan	nan	nan	
161	0.8	-237.8593750000001	1682.983764648438	-758.8110961914064	-373.9252624511719	1659.495727539063	-784.5357055664065	-398.7237854003907	1640.54833984375	-651.2687988281251	-435.7595214843751	1539.03857421875	-716.0145874023439	-497.7782592773439	1205.18896484375	-732.5838623046876	-314.1779479980469	1453.23974609375	-719.6473388671876	-342.5241394042969	1497.518432617188	-868.106384277344	-265.2818603515626	1411.008178710938	-959.606384277344	-222.1761627197266	1428.423583984375	-939.120056152344	-205.1962280273438	1377.983032226563	-969.5520019531252	-104.0381546020508	1344.410400390625	-974.1023559570315	-111.3653945922852	1290.973266601563	-927.4282836914065	158.0257415771485	1351.372436523438	-866.4953613281252	160.2174835205078	1347.074829101563	-940.9631347656252	240.6026153564454	1354.842895507813	-861.1273193359377	-327.1883850097657	1480.4462890625	-569.3198242187501	-242.1360015869141	1362.210693359375	-480.300994873047	-200.798080444336	1380.548583984375	-496.2899169921876	-182.6061401367188	1327.034423828125	-476.6818237304689	-93.93292236328126	1299.54931640625	-479.5580139160157	-106.2780227661133	1247.803833007813	-543.3026123046876	167.2647857666016	1313.136474609375	-534.9320678710939	243.9082794189454	1322.734252929688	-618.5769042968751	-334.8555603027344	1064.737182617188	-881.2417602539065	-321.0327758789063	1031.329711914063	-631.6995239257814	-514.3256835937501	1089.366455078125	-742.3032836914064	-524.5046997070314	1062.6337890625	-773.6192016601565	-524.3618164062501	1054.096069335938	-718.1919555664064	-227.0162963867188	793.5806274414065	-945.4443969726565	-157.49609375	750.2240600585939	-924.5852661132815	-129.7362823486328	774.4712524414065	-890.5625000000002	-151.3395080566407	691.3796997070314	-918.478942871094	-119.6976470947266	640.5080566406251	-919.6406250000002	-124.422721862793	629.0808105468751	-780.3820800781252	30.27521133422852	502.183563232422	-869.5451660156252	5.412160396575929	437.324920654297	-923.7011718750002	42.96587753295899	454.0480041503907	-902.1296997070315	87.76404571533205	389.3661193847657	-869.6921997070315	102.5426177978516	256.8291320800782	-896.3489990234377	97.51103973388675	280.9991149902344	-812.2429809570315	67.28411865234376	199.5954895019532	-855.231628417969	261.9942016601563	303.1370849609376	-807.093200683594	265.1903686523438	305.1611328125001	-846.9419555664065	247.3865814208985	268.1112060546876	-901.0417480468752	-389.8000793457032	789.6235351562502	-583.6569213867189	-347.3863525390626	738.6395263671876	-582.8623046875001	-314.3751831054688	744.6885986328126	-582.8482055664064	-361.8906555175782	660.5801391601564	-610.1984863281251	-328.1377563476563	516.0297241210939	-631.0068359375001	-307.5843200683594	515.4440917968751	-759.6250000000001	-282.9245605468751	358.7165527343751	-727.2822875976564	-317.9557800292969	273.8370361328126	-670.2048339843751	-289.2658386230469	273.6094970703126	-709.6784667968751	-307.3089294433594	233.1731414794922	-747.0137939453126	-364.8211059570313	96.45417785644534	-710.8509521484376	-353.7609558105469	133.163558959961	-793.5667724609377	-433.1074523925782	83.12865447998048	-771.782165527344	-208.6683502197266	60.27053070068361	-785.3400878906252	-208.7444152832032	52.39604949951173	-745.2524414062501	-252.1269989013672	31.63788223266602	-698.5390014648439	nan	nan	nan	
162	0.805	-237.0335693359376	1682.763427734375	-758.6254882812501	-373.3468627929688	1659.18603515625	-784.503112792969	-398.1967773437501	1640.240356445313	-651.2436523437501	-435.2348022460939	1538.906372070313	-715.9733276367189	-497.9996337890626	1205.270385742188	-732.5867919921876	-313.8006286621094	1452.95849609375	-719.6154174804689	-342.0039367675782	1497.2919921875	-868.0208129882815	-264.9572143554688	1410.783813476563	-959.613464355469	-221.7018432617188	1428.178466796875	-939.0573730468752	-204.8276824951172	1377.653076171875	-969.4857177734377	-103.5299682617188	1344.068237304688	-974.0503540039065	-111.0853576660157	1290.586791992188	-927.4619750976565	158.3703765869141	1350.838012695313	-866.4595336914065	160.5796051025391	1346.542236328125	-940.9546508789065	240.9777984619141	1354.354248046875	-861.0647583007815	-326.7339782714844	1480.18994140625	-569.3045043945314	-241.799789428711	1361.928466796875	-480.229705810547	-200.4809875488282	1380.240234375	-496.2592773437501	-182.3377838134766	1326.684204101563	-476.6522827148439	-93.70522308349611	1299.08935546875	-479.6141357421876	-106.0531768798828	1247.364990234375	-543.2109375000001	167.5170440673828	1312.611938476563	-535.0206298828126	244.1456909179688	1322.202270507813	-618.7056884765626	-335.1548767089844	1064.577270507813	-881.4070434570315	-321.4933166503907	1031.170776367188	-631.9084472656251	-514.6564941406251	1089.211791992188	-742.4877929687501	-524.8609008789064	1062.480102539063	-773.7808837890627	-524.6557006835939	1053.950561523438	-718.3773193359376	-227.0313415527344	793.5352783203127	-945.6260375976565	-157.4410400390625	750.3377075195314	-924.7174072265627	-129.689437866211	774.6260986328127	-890.6980590820315	-151.1680755615235	691.4902343750001	-918.6190185546877	-119.4145812988282	640.7518920898439	-919.6939697265627	-124.1746368408203	629.2608642578126	-780.433044433594	30.85585975646973	502.6145935058595	-869.7813720703127	6.194119453430178	437.6791992187501	-923.6531372070315	43.45927047729493	454.5096435546876	-902.2271728515627	88.31051635742189	389.857147216797	-869.717712402344	103.4592361450196	257.3592834472657	-896.3941040039065	98.18257141113284	281.4505920410157	-812.1939697265627	68.06176757812501	200.0363006591797	-855.2987060546877	262.5932617187501	303.8357543945313	-807.088073730469	265.9096069335938	305.8826904296876	-846.9403076171877	248.1442413330079	268.7967529296876	-900.996520996094	-389.9617614746095	789.504333496094	-583.7331542968751	-347.4597167968751	738.6035766601564	-582.8895263671876	-314.4455871582032	744.6608276367189	-582.8355102539064	-361.8322143554688	660.5100708007814	-610.1989135742189	-327.8655700683594	515.9814453125001	-630.9198608398439	-307.1394348144532	515.3917846679689	-759.5239868164064	-282.7376403808594	358.6095581054688	-727.1146850585939	-317.8583068847657	273.8033447265626	-670.1228027343751	-289.1263427734376	273.5543212890626	-709.5982055664064	-307.1683349609376	233.1338043212891	-746.8811645507814	-364.8198242187501	96.45424652099612	-710.8521728515626	-353.7679138183594	133.1977844238282	-793.532409667969	-433.0851440429689	83.12542724609376	-771.7861328125002	-208.6506347656251	60.32069396972658	-785.2285156250002	-208.7144165039063	52.40937423706056	-745.2335205078126	-252.1295166015626	31.6455421447754	-698.5645141601564	nan	nan	nan	
163	0.8100000000000001	-236.5229492187501	1682.473022460938	-758.6309814453126	-372.7311706542969	1658.9013671875	-784.4595947265627	-397.6482849121095	1639.937744140625	-651.2669067382814	-434.7117919921876	1538.756103515625	-715.9763183593751	-498.325653076172	1205.350952148438	-732.5006103515626	-313.4210815429688	1452.600219726563	-719.6293945312501	-341.4707946777344	1497.049926757813	-867.9243164062502	-264.4865417480469	1410.498413085938	-959.500915527344	-221.2368927001954	1427.899291992188	-938.9996337890627	-204.4734039306641	1377.376342773438	-969.4379882812502	-103.1901779174805	1343.72705078125	-973.946960449219	-110.7980422973633	1290.171508789063	-927.427917480469	158.6700286865235	1350.251342773438	-866.3887329101565	160.9530639648438	1346.01611328125	-940.887634277344	241.3459167480469	1353.824829101563	-861.0084228515627	-326.3090820312501	1479.89501953125	-569.3277587890626	-241.4856109619141	1361.60546875	-480.1656799316407	-200.1064147949219	1379.815795898438	-496.2191467285157	-182.06298828125	1326.3115234375	-476.664276123047	-93.3273391723633	1298.639892578125	-479.4761962890626	-105.830322265625	1246.936767578125	-543.2095336914064	167.7642517089844	1312.051025390625	-535.1107177734376	244.3771362304688	1321.647216796875	-618.7753906250001	-335.4689025878907	1064.382080078125	-881.524841308594	-321.9933166503907	1030.965209960938	-632.0884399414064	-515.0501708984376	1089.08251953125	-742.6932983398439	-525.2977294921876	1062.355224609375	-773.8629150390627	-525.0649414062501	1053.8798828125	-718.5137329101564	-227.0671539306641	793.4962158203127	-945.7414550781252	-157.322494506836	750.4225463867189	-924.8192138671877	-129.6880187988282	774.794128417969	-890.7282714843752	-151.0775299072266	691.5673217773439	-918.747253417969	-119.1582946777344	640.9730224609376	-919.7439575195315	-123.9853973388672	629.4606323242189	-780.555358886719	31.22638511657716	502.9661254882814	-869.794860839844	6.666208744049074	438.0747070312501	-923.7331542968752	43.95245361328126	454.9504394531251	-902.4151611328127	88.85447692871095	390.2942504882814	-869.7827758789065	104.1423263549805	257.8885192871094	-896.5498657226565	98.85052490234378	281.9015502929688	-812.2185668945315	68.88113403320314	200.4560852050782	-855.4313964843752	263.3010864257813	304.5344543457032	-807.1937255859377	266.5978088378907	306.5211181640626	-847.1680297851565	248.7585754394532	269.4880676269532	-900.9064941406252	-390.1279296875001	789.3316650390627	-583.7619628906251	-347.5079650878907	738.5102539062501	-582.8555908203126	-314.5554199218751	744.7128906250001	-582.7677612304689	-361.7905578613282	660.4033813476564	-610.1663208007814	-327.5966186523438	515.8957519531251	-630.8561401367189	-306.7215270996094	515.3917846679689	-759.3889160156251	-282.4111022949219	358.5347595214844	-727.1375732421876	-317.7057189941407	273.7645568847657	-670.0633544921876	-288.9793395996094	273.5359802246094	-709.3882446289064	-307.0325012207032	233.0690307617188	-746.8060302734376	-364.7449340820313	96.44417572021487	-710.8095703125001	-353.7550659179688	133.2235870361328	-793.5393676757815	-433.088836669922	83.15453338623048	-771.7839965820315	-208.6563873291016	60.35882568359376	-785.2244873046877	-208.7169494628907	52.40427398681642	-745.2288208007814	-252.1333465576172	31.63660621643067	-698.5212402343751	nan	nan	nan	
